<?xml version="1.0" encoding="UTF-8"?>
<svg version="1.1" viewBox="0 0 1416 1600" width="378" height="427" xmlns="http://www.w3.org/2000/svg">
<path transform="translate(0)" d="m0 0h1416v1600h-1416z" fill="#43518B"/>
<path transform="translate(0)" d="m0 0h1416v1600h-1416zm116 102v32l1 26 1 148-1 63-1 130-1 83-2 84v29l-1 98v52l-1 205-1 65-1 150-1 61-1 37-4 54-4 36v8h-2v19l2 3 1 5h-3v4l10 1h74l14 1 63 2h137l6 1h56l43 1 6-1h101l43 1 37 2 39 1 169 1 42 1h79l21-5 13-6v-2l4-1 8-9 7-15 2-10 1-19 1-406 2-82v-43l-68-4-35-1h-23l-9-1-171-1-63-2-21-1v-2l-12-6-2-4v-4l5 4 8 3 16 2 18 1 191 1 36 1h62l30 1 15 1 32 1 24 2 1-1v-41l-3-54-4-44-2-38-2-3-18-1-3-1v-68l1-228 1-55 1-102 1-24v-74l-3-15-5-9-4-3h-2l-2-4-10-7-6-4h-2v-2l-7-4-12-3-38-4-15-1-175-1-247-2-45-1-333-2z" fill="#010102"/>
<path transform="translate(684,721)" d="m0 0h65l50 2 128 4 14 1 8 7 2 2v51l-1 18-2 73-7 2v6h-45l-85-2-45-2-33-1-16-1-30-1-11-3-5-3v-22l2-54 1-45 1-25 4-5z" fill="#CDCDC7"/>
<path transform="translate(1252,383)" d="m0 0h16l12 2v14l-1 1-1 63-1 28-1 6v127h3l-1 3h-2v7h4v-85l1-101 2-20 3-22 1-3 5 1 2 3 1 9v93l-2 21v81l2 55v69l2 10 1 17v23l2 64 1 111 1 37v79l-1 9-1 43-2 9 2 6v8l-3 1-2-1v2h-4l-2 7-1 2-1 19 1 1v65h-7l-2-5-2-1v5l-1 1h-7v-2h-2l-1-2-1 2h-2v-2h-2l-1 5h-7l-3-2v-96l-7 1-4-1-1-20v-60l1-188 1-60 3-69v-80l1-16-1-21h4l1-2 2 9 1 2v-12l-1-11h3l-2-66-1-54-2-9v-89l-4-2-2-2v-6l6-4z" fill="#141743"/>
<path transform="translate(350,1443)" d="m0 0h25l19 1 13 1 9-1 18 1 5-1h37l8 1h93l12 2h54l9 1h21l6 1h14l7 1h16l34 1h41l57-1h93l25 1-3 2-11 1-4 1 11 1v2h9v3l5 2v2h5l-1 3-6 1 2 1h12v2h-4v3l10 2 14 2v2l-12-1-1 1 2 2-11 1-3-2 1-2-6 2h-4l3 5 9-1 6 2h8l5 1v-2l-2-1v-3l4-1 6 3-5 4-1 2h-6l3 2-3 1h-17l-1 1h-20l-53-2-48-1-188-2-78-2-490-5-4-1v-2l9-6 4-1 18-1 10-2 7-1 6-4 4-2 4-1v-2l9-2 7-2 7-3 5-1 7-1 6-2 14-1 7-1h9l4-1h53l26-1h15l8-1z" fill="#2A316A"/>
<path transform="translate(121,121)" d="m0 0 3 1 4 13 2 5 4 20 2 4 2 11 5 18v20l1 6 1 14-1 5 1 6-1 23v19l-1 6 1 9v18l-1 5v9l1 8v22l1 4-1 5v24l1 4-1 9-1 2 1 8v17l1 5-1 2 1 14-2 13 1 11-1 10v25l-1 7-1 11 1 9-1 7 1 7v20l-1 5 1 3v11l1 5v20l-1 6 2 7-2 11v13l-1 8 1 21-1 2v7l1 9v6l-1 1v24l-2 11 2 1v8l-1 9v44l1 1v7l-1 5 1 5-1 14v7l-1 5v18l-1 6 1 3 1 25 1 6-1 5 1 10-1 10 1 8-1 7 1 10v14l2 28 1 3 1 28v35l-1 7 1 7-2 9v13l-2 14 1 3v12l-2 6 1 7v9l-3 23-2 18-1 23 1 5v9l-1 12 2 7v20l1 26-1 14v12l-1 11v14l-1 13-1 15-2 5 1 7-1 2-1 14-1 3v9l-2 6v5h-2v7l-4 10-2 4-3 7-6 4-4 8-4 1v2l-5-1 1-16 4-26 4-42 3-52 1-33 1-57 1-142v-59l1-96v-131l1-38v-58l1-96 1-48 2-200 1-41 1-80v-35l-2-54v-13l-1-16v-16z" fill="#797FAB"/>
<path transform="translate(1249,718)" d="m0 0h36l3 1v13l-33 1 1 1 28 1 5 3 1 16 1 3 2 61v53l1 86 1 57v55l1 1 1 42-1 20-2 3-5 1h-14l-18-1 1 1 35 1 1 1v9l-1 1-35 1v6l1 2 1 35v56h-7l-3-2v-96l-7 1-4-1 1-4 4-4 3-5 4-2-5-1-1-47 1-25 1-66-1-63v-166l1-33 1-15z" fill="#2E3885"/>
<path transform="translate(378,111)" d="m0 0h2l1 2 7 4 5-1 4 2 3-3 5-3 8 4v2l8-1 5-1 3-2 21 2 7-2 7 2h4l11 2 1-2 2 1v2h3l-1-3 4-2 2 2 6 1h26l15 1 5-1 3 1 9 1 12-3v2l17 1 6-2 8 2h16l3-4v3h6l2 2h9l6-2 2-3 3 4 9 2 10-1 3-3h9l3 3 5 1 16-1v-2l4 2 4 1h8l3-1v-3h2v4l3-1 18 2v-2l8 1v2l8-6-1 4h13l2-4 4 2 12 2h7l3-3 6 1h18l2 1 9-1h25l4 1 4-1h141l19 4 11 4-2 2-4 1-1 2h-5v-2l-10 1-5 2-2 2-4-1h-3l-1 2-5-1-7 1-25 1h-5l-4 1-4-1-3 1h-7l-2 1-10-2-9 2-2 1-7-1h-5l-7 2-14 1h-21l-24-1-5-1h-3l-22-2h-7l-3 1-13-1h-7l-7-1h-25l-7 1-5-1h-74l-5-1-10 1h-70l-10 1-6-1h-23l-10 1-9-1-4-1-1 2-3 1v-2l-22-1h-4l-9-1-7 1-4-1-6 1-11-1-14-2-5-2v2h-11l-7-1-2 1-3-2-4-1-10 1h-19l-2-1h-9l-15 1-9-1h-37l-14 1h-46l-3-1-15 1-20-1h-27l-5-1h-27l-9-1-5-2-2-7v-6l1-1h111l38 1h22l14 1h8l2 1 9-1h19l10-1 3 2h13z" fill="#2D3784"/>
<path transform="translate(121,121)" d="m0 0 3 1 4 13 2 5 4 20 2 4 2 11 5 18v20l1 6 1 14-1 5 1 6-1 23v19l-1 6 1 9v18l-1 5v9l1 8v22l1 4-1 5v24l1 4-1 9-1 2 1 8v17l1 5-1 2 1 14-2 13 1 11-1 10v25l-1 7-1 11 1 9-1 7 1 7v20l-1 5 1 3v11l1 5v20l-1 6 2 7-2 11v13l-1 8 1 21-1 2v7l1 9v6l-1 1v24l-2 11 2 1v8l-1 9v44l1 1v7l-1 5 1 5-1 14v7l-1 5v18l-1 6 1 3 1 25 1 6-1 5 1 10-1 10 1 8-1 7 1 10v14l2 28 1 3 1 28v35l-1 7 1 7-2 9v13l-2 14 1 3v12l-2 6 1 7v9l-3 23-2 18-1 23 1 5v9l-1 12 2 7v20l1 26-1 14v12l-1 11v14l-1 13-1 15-2 5 1 7-1 2-1 14-1 3v9l-2 6v5h-2v7l-4 10-2 4-3 7-6 4-4 8h-3l2-3 2-16 2-11 4-20 1-8 2-4 3-19 2-12 1-1v-9l2-15 1-7v-7l1-4 1-27v-23l1-10-1-4-1-12v-73l1-14 1-22v-46l1-3v-13l1-22v-46l-1-2v-114l-1-21v-41l1-10 1-14-1-26 1-27v-44l-1-2 1-14-1-29 1-25v-126l1-5-1-2 1-6v-8l1-6-1-13v-9l1-5-1-17 1-5-1-13v-6l1-7-1-4 1-2v-23l1-3 1-24 1-2-2-1 1-13v-14l-1-7v-60l-1-5-1-11-1-9-1-5 1-6-2-4 1-2v-13h-5v5h2l-2 8v10l1 4-2 7v24l-1 36v18l-1 13-1 28h-1v-30l1-80v-35l-2-54v-13l-1-16v-16z" fill="#636B9B"/>
<path transform="translate(0)" d="m0 0h1416v13h-34l-69-1-12-1-34-1-56-1-33-1-100-1-753-1-28 1-207 1h-90z" fill="#E2DFD6"/>
<path transform="translate(684,721)" d="m0 0h65l50 2 128 4 14 1 8 7 2 2v51l-1 18-2 73-7 2v6h-45l-85-2-45-2-33-1-16-1-30-1-11-3-5-3v-22l2-54 1-45 1-25 4-5zm47 3-5 1-17 1-15 2-10 3-2 4-2 62-1 36v27l1 14 13 4 69 2 20 1h20l19-1 36-3 26-5 7-8 3-4 1-6 2-1 3-5 6-8 2-9 2-3v-6l4-9 1-4 2-1 3-4v-7l5-9 1-7h2l-1-9 1-11-4-12-2-5-8-6-12-4-25-2-14-1-10-1-29-3-4-1h-8l-5 1-8-1-2-1-34-1z" fill="#E3E0D7"/>
<path transform="translate(702,743)" d="m0 0 7 1 4-1 2 2h13l3-1v2h2l2 3h6l1 3 7 4 5 5 1 3h3l3 3v3l6 3 1 7v4l-4 1v3l-5 4-2 5 1 2 6-1 3-1 2 5-7 3-1 5v3l2 1-4 7 2 7 2 2-4 2 1 5 5 1-2 4-8 4-2 4-5 1-4 8-10 6-3 1-16 2h-8l-2-1v2h-11l-10-1-4-4-1-4v-27l2-74 2-13h1l1 5 2-4h7l4-2z" fill="#BEBDB9"/>
<path transform="translate(115,101)" d="m0 0h7v1h-6l2 58 1 148-1 63-1 130-1 83-2 84v29l-1 98v52l-1 205-1 65-1 150-1 61-1 37-4 54-5 44h-2l1 19 2 3v5h-3v4h84l14 1 63 2h137l6 1h56l43 1 6-1h101l43 1 37 2 39 1 169 1 42 1 68 1v1l-15 1-64 1-4 1-11 1-48-1-23-1h-41l-42-2-10-1-43-1h-146l-38-1-9-1-142-2-123-1-52-1-87 1-12-2-1-2v-33l3-29 2-8 2-32 1-39 2-79 3-178 1-228v-137l3-146 1-134 3-239v-76l-1-20v-13z" fill="#141743"/>
<path transform="translate(1252,383)" d="m0 0h16l12 2v14l-1 1-1 63-1 28-1 6v129l-1 30-2 3-2 15-2 4-5-1-4-5-4-11-4-17-2-22h3l-2-66-1-54-2-9v-89l-4-2-2-2v-6l6-4z" fill="#CACAC6"/>
<path transform="translate(667,718)" d="m0 0 4 2v-2h6l2 6-3 4-1 25-2 75-2 46 9 3 7 2 30 1 16 1 57 2 21 1 85 2h47l1 7-35-1-191-1-18-1-20-3-8-5-1-1 1 7 7 4 6 3v2l87 3 168 1 12 1h20l35 1 68 4v43h-1l-1-39-6-1v2l-21-2-4-3-1 2v-2h-9v3h-2l-1-3-8-1-36-1-11 1h-11l-3 1-12 1v-3l-14 2-3 1-4-1-10 1h-31l-5-1-6 1h-7v-2l-7 2-6-2-25-1h-44l-6-1h-41l-27-1h-7l-3-1h-10l-1-1-9-2-17-4-6-3v-2h-2l-1-7-3-2 2-6-2-7-1-20 1-18-1-4v-8l-1-10v-9l-1-11-2-2 1-4 1-7-1-10-1-12-1-2v-12l2-10 2-3h2l2-4z" fill="#2E356D"/>
<path transform="translate(1249,495)" d="m0 0h1l1 7 2 92v28h-3l2 11v14l-3-4-2-7h-4l1 7 1 15-1 15v80l-3 69-1 60-1 188v60l1 17-1 3h-2v-2l-5-2-5-5-2-6v-39l-1-51 2-33 4-51 2-21 3-40 1-10 1-28v-28l1-6-2-7-1-10-2-8-2-10-1-17-2-11 2-6-2-4 5-5 3-4 5-25v-12l-3-6-6-2-4-9-1-7-1-13v-20l2-3 3-10 2-11 1-3 1-110 3-10 3 1 2 7 6 2z" fill="#010013"/>
<path transform="translate(1288,480)" d="m0 0h2l1 23-2 38v13l-1 18v84h2l1-4 1 16v26l-1 2h-2v19l-1 4h-39l-1 15-1 44v165l1 56-1 73-1 17v45h5v3l-5 2-3 5-3 2-1-2-1-14v-60l1-188 1-60 3-69v-80l1-16-1-21h4l1-2 2 9 1 2 2-1 5 21 5 10 2 2h4l2-12 2-8 1-1 1-30 1-2h3l-1 3h-2v7l5-2 1-123 3-17-1-6 3-2z" fill="#292F66"/>
<path transform="translate(1099,718)" d="m0 0 6 3v3h6l3 3 3 20v37l-1 5v90l4 16v10l-5 1v2l-7 1-4-1-1-2h-7l-5 1-5-2-9 1-1 17h-1v-16h-20l-48-3-35-1h-23l-9-1-171-1-63-2-18-1-3-1v-2l-4-1-8-4-3-5v-7l4 5 10 4 16 2 18 1 191 1 36 1h62l30 1 15 1 32 1 24 2v-41l-3-54-4-44z" fill="#020115"/>
<path transform="translate(1280,386)" d="m0 0 1 2 9 1 5 5 4 8 3 9v21l-1 35v50l-4 11-1 17v76l1 35 2 30v50l8 2 2-3 1-16 1-7 5-1 1 1v20l-2 54-2 31-3 14h-2l-2 9h-1l-1 5h-1l-1 74 1 51 2 21 2 46 4 30 1 26v35l-4 4-6 2-1 15h-1l-2-11-2-2h2l1-8 1-43 1-16v-72l-1-40-1-108-2-66v-22l-1-16-2-10v-69l-2-55v-81l2-21v-97l-2-7-5-2-3 25-2 20-1 101v83l-1 2h-4v-7l3-3h-3l-1-2v-125l1-6 1-28 1-63 1-1z" fill="#010012"/>
<path transform="translate(1249,718)" d="m0 0h36l3 1v12h-31l-6 2v4l-1 3-1 2h2l2 5v27l1 26v14l1 2h-2l1 6 1 10v81l1 46 1 118v56h32v1l-12 1h-20l1 1 35 1 1 1v9l-1 1-35 1v6l1 2 1 35v56h-7l-3-2v-96l-7 1-4-1 1-4 4-4 3-5 4-2-5-1-1-47 1-25 1-66-1-63v-166l1-33 1-15z" fill="#44528C"/>
<path transform="translate(355,1489)" d="m0 0h47l9 1 1 1v-1h18l2 2h3l-2-2h4v2l15 2h70l82 1h14v2h3l1-2 3 2h35l4-2 4 2 1-2 5-1 6 1 17-1 7 1 2 2 28 1h31l47 1h3l1 2 122 1h63l5 1h16v1l-6 1h-87l-34-1-169-1-39-1-37-2-43-1h-101l-7 1-43-1h-55l-6-1h-137l-63-2-14-1h-70l1-2h9l4-1h109l62-1h46z" fill="#2A316F"/>
<path transform="translate(667,718)" d="m0 0 4 2v-2h6l2 6-3 4-1 25-2 75-2 46 2 1-5-1-1-3-3-2 1-2-1-24-1-4v6l-2 7v31l3 1v2l4 1 3 5 9 2 2 4h-6l-7-2-10-4v-2h-2l-1-7-3-2 2-6-2-7-1-20 1-18-1-4v-8l-1-10v-9l-1-11-2-2 1-4 1-7-1-10-1-12-1-2v-12l2-10 2-3h2l2-4z" fill="#2B326A"/>
<path transform="translate(1044,105)" d="m0 0h7l16 3 9 8 5 5 5 4 5 14 2 19-1 11-1 18-1 46-4 20v26l-1 4v11l3 15v16l-2 5v9l-1 10h-2v22l-1 17-1 38-1 53-1 1-1 67h-1v-128l1-55 1-102 1-24v-74l-3-15-4-7v-2l-4-2-8-7-6-4-8-5v-2l-5-2-14-4-38-4-15-1v-1h65z" fill="#02010C"/>
<path transform="translate(0)" d="m0 0h720v1l-11 2h-90l-20 1h-204l-72 1-13-1-1 1-87 1-106 1-26 1h-90z" fill="#E5E2D8"/>
<path transform="translate(1088,718)" d="m0 0h7l3 2 2 37 3 39 2 39v12l1 7 1 30 1 14-24-2-2-1 1-7 2-7v-8l-3-12-1-30v-4l1-13v-7l2-7-1-9 1-7-1-16 1-14 3-19z" fill="#626A9A"/>
<path transform="translate(107,740)" d="m0 0h1l1 8v123l-1 226-3 182-2 75-1 41-2 30-2 8-2 19h-1v-33l2-44v-19l1-32-2-36-1-15 1-5-1-2v-7l-1-8-1-30 2-24 1-19 2-11 2-14 2-17 1-9 1-28 1-96v-55l-1-30v-22l1-1v-87z" fill="#01000C"/>
<path transform="translate(670,878)" d="m0 0 4 5 10 4 16 2 18 1 191 1 36 1h62l30 1 15 1v1l-15 1-3 2-8 2-36-1h-48v2h7v1l-180-1-63-2-18-1-3-1v-2l-4-1-8-4-3-5z" fill="#0A091D"/>
<path transform="translate(1252,383)" d="m0 0h16l12 2v14l-1 1-1 63-1 28-1 6v129l-1 30h-1l-1-32-1-16-1-49v-23l-2-1-2-13-3-9-3-24-1-4-1-46-1-7 1-14v-18l-9-2-1 25h-1v-19l-4-2-2-2v-6l6-4z" fill="#B5B5B6"/>
<path transform="translate(90,7)" d="m0 0h201v1l-31 1-113 1-24 1-66 1-21 1-4 3-12 2-12-1v46l-1 48-1 18-2 113-1 34-1 155-1 87h-1v-510z" fill="#2C346B"/>
<path transform="translate(1035,6)" d="m0 0h43l100 1 33 1 56 1 34 1 12 1 69 1 34 1v11h-16l-55-2-54-1-87-3-50-2-11-1 1-2 4-1v-2l-16-1-78-1-19-1z" fill="#17172F"/>
<path transform="translate(117,160)" d="m0 0h1l1 148-1 63-1 130-1 83-2 84v29l-1 98v52l-1 205-1 65-1 150-1 61-1 37-4 54-5 44h-2l1 19 2 3v5h-3v4h-2v-22l2-23 2-7 2-23 2-20 1-22 2-80 1-85v-35l2-133v-112l2-255 1-74 1-52 1-73 1-18v-127l1-5z" fill="#2A3170"/>
<path transform="translate(720)" d="m0 0h217v1l17 1v1l7 1 37 1v1h-673l-28 1h-181v-1l122-1 71-1 2-1 13 1 84-1h199l13-1h89z" fill="#9B9FB1"/>
<path transform="translate(1243,493)" d="m0 0 6 4 1 7v16h-1v-5l-6-1-2-3-1-5-2-1-2 10-1 110-2 6-2 11-3 9-1 1v20l1 16 4 12 7 3 3 6v12l-3 14-2 11-5 6-3 3 2 6-2 6 2 9 1 17 3 16 1 2 2 13 1 7-1 8v31l-1 23-2 20-3 42-2 18-4 51-1 30 1 57v24l2 8 4 2 5 4-5-1-6-5-2-6-1-51v-60l2-20 2-29 5-61 2-41v-15l-2-21-4-33-4-8v-17l-2-10-1-2v-11l-1-2-1 2-2 26-1 23-2 10-3-1v-26l2-26 2-16 3-3 1 4-1 2h3l4-5 6-2 3-10 5-17-1-9-5-4-6-4-2-4-3-31v-18l4-18 4-9 3-20v-81l1-13 2-9 3-3 4 1z" fill="#01010B"/>
<path transform="translate(104,1483)" d="m0 0h96l196 2 1 1 82 1 55 1v1l-179 1-14 2h-45l-67 1h-105l-6 1h-10l-6-1-1-9z" fill="#44528C"/>
<path transform="translate(1248,717)" d="m0 0 3 1-2 1-1 15-1 44v165l1 56-1 73-1 17v45h5v3h-4v-2l-4-1-3-1v-182l1-90 2-75 1-27 3-41z" fill="#2D3784"/>
<path transform="translate(126,102)" d="m0 0h49l216 1 117 1 56 1 146 1 90 1 175 1 35 3v1l-44-1h-83l-16 1-1-1h-9l-4 1-9-2v2h-2v-2l-9 3v-2l-8 1-5-1-15 1h-7l-8-1-9 1-29-1h-28l-68-1-44 1h-19l-44-2-11-1h-13l-5 1-17-1h-17l-7-1h-35l-73-1-18-1-184-1-43-1z" fill="#22275D"/>
<path transform="translate(1257,1149)" d="m0 0h27l1 3-3 3-1 65-1 22-3-1v5l-1 1h-7v-2h-2l-1-2-1 2h-2v-2h-2l-1 4-1-55-1-35-1-2z" fill="#020206"/>
<path transform="translate(1249,495)" d="m0 0h1l1 7 2 92v28h-3l2 11v14l-3-4-2-7h-4l1 7 1 15-1 15-1 29h-1l-4-79-2-21v-86l1-2h3l5 6 4 2z" fill="#141743"/>
<path transform="translate(506,1498)" d="m0 0h101l43 1 37 2 39 1 169 1 42 1 68 1v1l-15 1-64 1-4 1-11 1-48-1-23-1h-41l-42-2-10-1-43-1h-146l-38-1-9-1-71-1v-1l60-1z" fill="#0C0B22"/>
<path transform="translate(0,861)" d="m0 0h1l1 200 1 62 1 139v176l-1 162h-3z" fill="#323A71"/>
<path transform="translate(1284,525)" d="m0 0h1l1 32 1 89v68l-4-1v-4h-4l-1 2h-7l-1 2-6 1h-7l-1 1h-8l-2-3v-33l1-14 4 2v3h2l3 5 2 6 5 5 6-1 2-1 2-4 5-5 3-1v-7l1-6 1-118z" fill="#2D3784"/>
<path transform="translate(663,835)" d="m0 0h1l1 8 1 25-1 1 3 2 1 3 4 1-1 6-1 4 2 4 12 6v2l87 3 168 1 12 1h20l35 1 68 4v43h-1l-1-39-6-1v2l-21-2-4-3-1 2v-2h-9v3h-2l-1-3-8-1-36-1-11 1h-11l-3 1-12 1v-3l-14 2-3 1-4-1-10 1h-31l-5-1-6 1h-7v-2l-7 2-6-2-25-1h-44l-6-1h-41l-27-1h-7l-3-1h-10l-1-1-9-2-2-4-9-2-4-6-3-1-4-5v-29l2-7v-7z" fill="#25295E"/>
<path transform="translate(1063,1477)" d="m0 0 2 4h2l1 2v6l-4 10-5 4-5 8-18 8-19 5-11-1-3-1-13-1-12-5-2-2-4-1-55-2-4-2 11-1v-1l66-1 26-2 21-5 11-5h2v-2l5-3 6-7z" fill="#02010C"/>
<path transform="translate(684,721)" d="m0 0h65l50 2 32 1v1l-20 2-5 1-8-1-2-1-34-1h-31l-5 1-17 1-15 2-10 3-1 3-2 62-1 36v41l6 1 8 3 18 1v1h-25l-11-3-5-3v-22l2-54 1-45 1-25 4-5z" fill="#E1DED6"/>
<path transform="translate(1287,395)" d="m0 0 5 1 4 9 3 12 1 15-1 17-1 49-3 29-1 30-1 54h-1v-81l2-21v-97l-2-7-5-2-3 25-2 20-1 101v83l-1 2h-4v-7l3-3h-3l-1-2v-125l1-6 1-28 1-63 2-1 1 26 2-21 2-7z" fill="#0D0C24"/>
<path transform="translate(4,1349)" d="m0 0h1l2 50 2 28 2 54 2 42 1 43v26l-1 8h-10v-178z" fill="#212255"/>
<path transform="translate(107,740)" d="m0 0h1l1 8v123l-1 226-3 182-2 75-1 41-2 30-2 8-2 19h-1v-17l1-11 1-17 1-4v-13l2-18 1-35 1-48 1-26 1-64v-71l-1-1 1-28 1-96v-55l-1-30v-22l1-1v-87z" fill="#01000F"/>
<path transform="translate(1295,667)" d="m0 0h1v67l3 4 2 95 1 86 1 51 2 21 2 46 4 30 1 26v35l-4 4-6 2-1 15h-1l-2-11-2-2h2l1-8 1-43 1-16v-72l-1-40-1-108-2-66v-22l-1-16-2-10v-17z" fill="#010012"/>
<path transform="translate(1073,992)" d="m0 0h1l1 63 1 8v26l1 16 1 5v37l-1 5-1 17 1 42 1 25v41l-1 33v40l-3 32-1 19h-1v-369z" fill="#030311"/>
<path transform="translate(1247,1137)" d="m0 0 47 1v9l-1 1-35 1v6l1 2 1 35v56h-7l-3-2v-96l-7 1-4-1 1-4 4-4z" fill="#ADAEB5"/>
<path transform="translate(1090,171)" d="m0 0h1v16l-1 46-4 20v26l-1 4v11l3 15v16l-2 5v9l-1 10h-2v22l-1 17-1 38-1 53-1 1-1 67h-1v-128l1-55 1-102 1-24 2-10h5v-43l2-6z" fill="#09091E"/>
<path transform="translate(113,817)" d="m0 0h1l1 141-1 86v82l-1 119-1 57-2 53-3 45-4 37-1 5h-1l1-16 2-22 3-39 1-37 1-61 1-155 1-60 1-230z" fill="#44528C"/>
<path transform="translate(110,801)" d="m0 0h1v316l-1 150-1 61-1 37-4 54-5 44h-2l1 19 2 3v5h-3v4h-2v-22l2-23 2-7 2-23 2-20 1-22 2-80 1-85v-35l2-133v-112z" fill="#25285E"/>
<path transform="translate(355,1489)" d="m0 0h47l9 1 1 1v-1h18l2 2h3l-2-2h4v2l15 2h15l-2 2h-34l-86 1h-63l-7-2h-164l1-2h9l4-1h109l62-1h46z" fill="#2E3884"/>
<path transform="translate(1099,718)" d="m0 0 6 3v3h4l1 6-5 2 2 5 2 27 2 6 2 26 1 26 1 59v18l-1 4-10-1v-2h-2l-1-3h7v-41l-3-54-4-44z" fill="#141743"/>
<path transform="translate(114,101)" d="m0 0 1 4v14l1 18v76l-3 239-1 134-3 146-2-4v-43l1-34v-39l1-47v-45l1-32 2-121 1-84-1-38v-66l1-8v-26l-2-22v-9h2v-12z" fill="#0B0A1E"/>
<path transform="translate(1238,505)" d="m0 0 3 1 2 7 6 2 1 9-1-2-5-2-4-4v-2h-3v88l2 21 4 79v14h-1l-2-10-2-3-6-2-4-9-1-7-1-13v-20l2-3 3-10 2-11 1-3 1-110z" fill="#010013"/>
<path transform="translate(115,101)" d="m0 0h7v1h-6l1 32v194l-1 7v125l-1 18-1 86-1 39-1 74-1 12h-1v-60l1-43 1-134 3-239v-76l-1-20v-13z" fill="#141743"/>
<path transform="translate(1250,398)" d="m0 0 5 1 1 3v16l-1 7v8l1 1v6l-1 4 1 5 1 21 1 12 1 16 1 11v34l-1 3h-6l-1-3-1-34-2-14-1-2v-70l1-21z" fill="#E3E1D7"/>
<path transform="translate(1288,480)" d="m0 0h2l1 23-2 38v13l-1 18-1 74h-1l-1-99-1-4-1 122-2 9-5 5-3 2-2 4-5 2-2-1v-2h-2l-3-4-1-8h3l4 5h4l2-12 2-8 1-1 1-30 1-2h3l-1 3h-2v7l5-2 1-123 3-17-1-6 3-2z" fill="#232458"/>
<path transform="translate(1242,716)" d="m0 0 2 1v36l-3 69-1 60-1 17h-1l-2-9 1-28v-28l1-6-2-7-1-10-2-8-2-10-1-17-2-11 2-6-2-4 5-5 3-4 5-25z" fill="#010013"/>
<path transform="translate(1139,609)" d="m0 0h1l2 18v12l-2 42 1 11-2 6h-1l-1 5-1-2-4-1-3-12-2-34v-1-16l1-13 1-10 3-4z" fill="#02010C"/>
<path transform="translate(1270,615)" d="m0 0 2 3 2 6v33l-2 8-2 12-5 1-5-6-4-11-4-17-2-22 8-2 5 3h3l-1-2 2-4z" fill="#E3E0D7"/>
<path transform="translate(90,7)" d="m0 0h201v1l-31 1-113 1-24 1-66 1-21 1-4 3-12 2-12-1v46l-1 48h-1v-54l1-39-2 1-1 5-2-1-1-13z" fill="#171835"/>
<path transform="translate(1231,9)" d="m0 0h36l34 1 12 1 69 1 34 1v11l-13-1-6-3-5-1-3 1-4-1-2 2h-9v-2h-7l-3 1-6-3v2l-7 1h-3-17l-1-4-4-2-20-1h-16l-3 2-9 1-7-1h-12l-12-1-1-2-15-2z" fill="#131642"/>
<path transform="translate(34,84)" d="m0 0h2l1 7 2 18 1 11v30l-1 6 3 9-3 7h-2v9l-1 2h-2l1 10-2 4-2-1v-2l-3-11v-56l3-6v-11l1-3v-10l1-10z" fill="#0A091D"/>
<path transform="translate(220,104)" d="m0 0h133l18 1 91 1h19l11 1h18l12 1 3-1h13l30 2v1l-17 1h-26l-10-1h-87l-17-1-7 1-5-1-4-1v2h-13v-2l-10 1-4 1h-11l-6-1h-2l-1-2h-2v2h-16l-2-2h-32l-3-1v3l-3-1 1-1-5-1-1 2h-2v-2l-3 1h-13l-2 2h-4l-2-3h-3v3h-4l-3-3h-24l-5-1z" fill="#2E3885"/>
<path transform="translate(1290,757)" d="m0 0h1l2 61v53l1 86 1 57v55l1 1 1 42-1 20-2 3-5 1h-14l-10-1v-1h15l9-1 2-1 1-4v-57l-1-42v-118l-1-94-1-34v-25z" fill="#2B326A"/>
<path transform="translate(1255,732)" d="m0 0h32l5 4 1 23 1 9v24l1 4v61l1 15v51l1 10-1 9 1 3-1 17 1 80-1 27h-2v-70l-1-42-1-105v-35l-2-60-1-7-1-12-6-2-26-1-3-2z" fill="#232458"/>
<path transform="translate(1109,724)" d="m0 0 4 1 2 9 2 13v37l-1 5v90l4 16v10l-5 1v2l-7 1-4-1-1-2h-7l-5 1-5-2-9 1-1 17h-1l-1-16-2-1 1-3 2-1h33l6 1v-22l-1-62-2-38-2-16-1-1-2-27-2-6 5-1z" fill="#03020F"/>
<path transform="translate(706,1470)" d="m0 0 39 1h73l18 1h61l4 2-114 2h-24l-8 1-15-1h-65l-9-1h-9l-2-2 5-1 9-1z" fill="#202154"/>
<path transform="translate(1093,728)" d="m0 0 2 4-1 2 4 10v13h2l2 24v48 2 16l-5-2-1-7-2-1-1-42-1-14-1-17v-35z" fill="#797FAC"/>
<path transform="translate(112,307)" d="m0 0h1v60l-2 121-1 45v45l-1 34v44l-1 30v44l1 3v7h-2v35l-1 33h-1v-113l1-41v-37l1-16v-62l1-32v-26l2-103z" fill="#01000D"/>
<path transform="translate(4,1349)" d="m0 0h1l2 50 2 28v8l-1-2h-2l1 16v99l1 32 1 10v10h-6v-178z" fill="#151844"/>
<path transform="translate(1280,386)" d="m0 0 1 2 9 1 5 5 4 8 3 9v21l-1 35v50l-4 11-1 17-1 70v51h-1l-1-28v-89l1-22 3-32 1-46 1-24-2-11-4-15-1-3h-5l-2 3-2 16-2 26h-1z" fill="#010011"/>
<path transform="translate(182,1494)" d="m0 0h95l5 2h63l88-1h32l7-1h50v2h14l2 2-32 1-7 1-43-1h-55l-6-1h-137l-63-2-13-1z" fill="#2B326B"/>
<path transform="translate(1295,667)" d="m0 0h1v67l3 4 2 95 1 86 1 51 1 30v79l-3 53-1 5v6h-1l-1-5-2-2h2l1-8 1-43 1-16v-72l-1-40-1-108-2-66v-22l-1-16-2-10v-17z" fill="#0B0A1E"/>
<path transform="translate(1061,1482)" d="m0 0 1 4-3 5-3 4h-2l-2 7-8 6-10 4-8 2h-8l-11-4h-94v-1l11-1v-1l66-1 26-2 21-5 11-5h2v-2l5-3z" fill="#010013"/>
<path transform="translate(419,104)" d="m0 0h89l56 1 146 1 90 1 175 1v1h-202l-216-1-18-1-41-1-79-1z" fill="#1A1C4C"/>
<path transform="translate(1243,703)" d="m0 0h1l1 8v6h2v15l-2 27-2 64-1 38-1 90v180l3 3 3 1-1 4-3 5-3 2-1-2-1-14v-60l1-188 1-60 3-69z" fill="#141743"/>
<path transform="translate(101,1494)" d="m0 0h80l14 1 63 2h137l6 1h56l42 1v1h-130l-123-1-52-1-87 1v-2h-3v-2z" fill="#151844"/>
<path transform="translate(1242,823)" d="m0 0h1v246l1 47 1 17 7 2-1 2h-4v-2l-4-1-3-1v-182l1-90z" fill="#282D64"/>
<path transform="translate(930,892)" d="m0 0h77l30 1 15 1v1l-15 1-3 2-8 2-36-1h-48v2h7v1l-24-1 4-3 3-1v-3z" fill="#0B0A20"/>
<path transform="translate(1253 1e3)" d="m0 0h1l1 33v98l-4 1-2-2v-102l1-12 2-7h-2z" fill="#636B9B"/>
<path transform="translate(93,1465)" d="m0 0h1l1 32h7l5 1 89-1 50 1 123 1v1l-149 1-37 1h-20l-32 1-19 1-6-2-4-2h-8l-1-2z" fill="#01000C"/>
<path transform="translate(325,5)" d="m0 0 492 1v1l-97 1-55 1h-39l-15-1-314-1v-1z" fill="#17193C"/>
<path transform="translate(1314,523)" d="m0 0 3 1 1 2 1 79v40l-1 21v14l-1 11-2 3-1-3v-14l1-14-1-53v-20l-1-19v-46z" fill="#01000C"/>
<path transform="translate(0,1254)" d="m0 0h1l1 94 1 190v62h-3z" fill="#6971A0"/>
<path transform="translate(1271,1154)" d="m0 0 5 1v92h-7l-1-89z" fill="#414E88"/>
<path transform="translate(1086,138)" d="m0 0 4 4v3h2l1 19-2 7-2 10-1 4v40l-1 3-3 1-2-1v5h-1l-1-69-1-9 2 2 1 5h2l1-3v-17z" fill="#040319"/>
<path transform="translate(310,3)" d="m0 0 14 1 84-1h198l44 1v1l-325 1-28 1h-181v-1l122-1 71-1z" fill="#BFBFBF"/>
<path transform="translate(1259,1157)" d="m0 0 6 2v28l1 17 1 1 1-23h1v63h-2l-1-2-1 2h-2v-2h-2l-1 4-1-55z" fill="#0E0E27"/>
<path transform="translate(942,886)" d="m0 0 2 4v3l-35-1-191-1-18-1v-1h65l31-1 67-1h77z" fill="#202457"/>
<path transform="translate(1287,395)" d="m0 0 5 1 4 9 3 12 1 15-1 17-1 49-3 29-1 30-1 54h-1v-81l2-21v-97l-2-7-5-2-3 25-2 12h-1v-15l2-21 2-7z" fill="#0B0A1E"/>
<path transform="translate(671,108)" d="m0 0h116l203 1 20 2v1l-44-1h-83l-16 1-1-1h-9l-4 1-9-2v2h-2v-2l-9 3v-2l-8 1-5-1-15 1h-7l-8-1-9 1-29-1h-28l-53-1z" fill="#2C3475"/>
<path transform="translate(696,898)" d="m0 0 46 1 30 1 168 1 12 1h20l35 1 68 4v43h-1l-1-39-6-1v2l-21-2-4-3-1 2v-2h-9v3h-2l-1-3-8-1-73-2-17-1h-32l-131-1-63-2-9-1z" fill="#171A48"/>
<path transform="translate(1099,718)" d="m0 0 2 1 1 4 2 28 4 39 1 14 1 1 1 8 2 52v33l-4 1-1-2v-41l-3-54-4-44z" fill="#232458"/>
<path transform="translate(115,101)" d="m0 0h7v1h-6l1 32v194l-1 7v125h-1l-1-90v-73l1-84v-76l-1-20v-13z" fill="#1C1E4E"/>
<path transform="translate(1402,1596)" d="m0 0h14v4h-259v-1l28-1 180-1z" fill="#1D214B"/>
<path transform="translate(1247,1137)" d="m0 0 47 1v9l-1 1-35 1-7 1h-12l1-4 4-4z" fill="#DFDCD4"/>
<path transform="translate(920,902)" d="m0 0h13l15 1 33 1v1l-7 1h-11l-3 1-12 1v-3l-14 2-3 1-4-1-10 1h-31l-5-1-6 1h-7v-2l-7 2-6-2-25-1h-44l-5-1v-1z" fill="#2A3169"/>
<path transform="translate(1249,718)" d="m0 0h36l3 1v12h-31l-8 1-1-1v-12z" fill="#B6B6B7"/>
<path transform="translate(673,1494)" d="m0 0 13 1 11-1 7 1 2 2 19 1-3 2h-40l-144-2-2-1h-12l-2-2h96v2h3l1-2 3 2h35l4-2 4 2 1-2z" fill="#2C357C"/>
<path transform="translate(1249,495)" d="m0 0h1l1 7v65l-2 1-2 3-3-8-4-45-2-1-1 85h-1v-86l1-2h3l5 6 4 2z" fill="#0E0E25"/>
<path transform="translate(1135,472)" d="m0 0 4 1-1 6 1 7 2 4 2-2v12l-3-1v5l2 1 1 5-1 11 1 5-2 3 1 10v9l1 2v13h-4v-10l-1-4 1-9-2-4 1-9-4-4 1-7-2-4v-8-2l-1-4v-21z" fill="#01010B"/>
<path transform="translate(107,740)" d="m0 0h1l1 8v123l-1 76h-1l-1-52-1-11v-76z" fill="#030215"/>
<path transform="translate(117,160)" d="m0 0h1l1 148-1 63-1 130-1 81h-1v-249l1-5z" fill="#2C3474"/>
<path transform="translate(366,1479)" d="m0 0h16 3 43l3 1 7-1v2l7-2 4 2h6l5 1v2l-9 1h-88l-8-1-6-1v-1l14-1z" fill="#232458"/>
<path transform="translate(105,1160)" d="m0 0h1v63l-1 56-2 75-1 41-2 30-2 8-2 19h-1v-17l1-11 1-17 1-4v-13l2-18 1-35 1-48 1-26 1-64z" fill="#0B0A1E"/>
<path transform="translate(669,732)" d="m0 0h1v55l1 3 1 19h1v19l-2 42h-1l-1-6h-1l-1-12-2-27 2-33 1-56z" fill="#47548D"/>
<path transform="translate(109,1231)" d="m0 0h1v36l-1 61-1 37-4 54-5 44h-2l1 19 2 3v5h-3v4h-2v-22l2-23 2-7 2-23 2-20 1-22 1-2 1-23 1-49 1-71z" fill="#2B326A"/>
<path transform="translate(0,256)" d="m0 0 3 2-1 173-1 87h-1z" fill="#252A5F"/>
<path transform="translate(1095,718)" d="m0 0h4l1 2 2 38 4 44 3 54v41l-2-3-1-10-1-33-1-5v-13l-3-52-2-24-2-37z" fill="#44528C"/>
<path transform="translate(115,633)" d="m0 0h1v152l-1 32h-2l-1-2v-22l1-113 1-46z" fill="#43518B"/>
<path transform="translate(0,8)" d="m0 0h64v1l-36 1h-27l1 2 1 11 2-5h2v39l-2 123h-1l-1-31v-38l1-7v-3l1-6h-2l1-3v-32l-3-27z" fill="#2C3063"/>
<path transform="translate(110,488)" d="m0 0h1v141l-2 103-2-4v-43l1-34v-39l1-47v-45z" fill="#010013"/>
<path transform="translate(763,1503)" d="m0 0h132l42 1 68 1v1l-95 1-60-1h-15l-16-1-56-1z" fill="#141744"/>
<path transform="translate(286,1486)" d="m0 0h111l82 1 55 1v1h-142l-68-1-38-1z" fill="#6B73A1"/>
<path transform="translate(1138,728)" d="m0 0 2 2 2 6 2 10 1 22-1 3-3 1-2 6-3 3h-5l-3-4 1-13 4-4 1-2h7l-1-2-1-1-1-9-2-5v-4l2-1z" fill="#01010B"/>
<path transform="translate(1282,1183)" d="m0 0 3 1 3 31v32h-7l-1-1v-26l1-27z" fill="#7077A5"/>
<path transform="translate(114,101)" d="m0 0 1 4v14l1 18v76l-1 11-1 50h-1l-1-18v-77l1-8v-26l-2-22v-9h2v-12z" fill="#040417"/>
<path transform="translate(1314,769)" d="m0 0h1v17l-2 31-3 14h-2l-2 9h-1l-1 5h-1l-1-13 3-30 1-8 5-3 2-8z" fill="#01010B"/>
<path transform="translate(670,878)" d="m0 0 4 5 10 4 16 2 3 2-3 3 14-1 6 2 5 1 11 2v1h-30l-18-1-3-1v-2l-4-1-8-4-3-5z" fill="#0B0A1F"/>
<path transform="translate(504,102)" d="m0 0h29l32 1 9 1 111 1v1h-132l-45-1-111-1v-1z" fill="#08071A"/>
<path transform="translate(1317,344)" d="m0 0h3l4 5 1 5h1v18l-3 17-5-1-2-3-1-15v-6l1-1v-4l-2-1 1-1z" fill="#02010C"/>
<path transform="translate(1279,399)" d="m0 0h1l1 41h1l-1 57-1 13-2 5-1 8h-1v-32l1-28 1-63z" fill="#141636"/>
<path transform="translate(1290,757)" d="m0 0h1l2 61v53l1 86v7l-2 3-1-19v-37l-1-94-1-34v-25z" fill="#2B326A"/>
<path transform="translate(1298,492)" d="m0 0h2l1 5v20l-4 11-1 17-1 70v51h-1l-1-28v-89l1-22 3-32z" fill="#030213"/>
<path transform="translate(16,1595)" d="m0 0 8 1 5 2 1-2h11l5 1h35l60 1 36 1v1h-161z" fill="#161946"/>
<path transform="translate(1294,1145)" d="m0 0 1 4h-4l-1 5v5l-2 3-1 19 1 1v33h-1l-3-31-2-1v10h-1v-38l3-1v-4l-26-1v-1l35-1z" fill="#323A72"/>
<path transform="translate(114,478)" d="m0 0h1l1 106-2 84-2 2v-67l1-52z" fill="#262A61"/>
<path transform="translate(194,1497)" d="m0 0 52 1 123 1v1l-149 1h-29v-1l-72-1v-1z" fill="#060516"/>
<path transform="translate(1257,1149)" d="m0 0h27l1 3-1 2-2-1v-3h-6v5h-5l-2 5v22l-1 23-2 2-1-3-1-23 1-22h-2l-1 3-1-4-3-1-1-2z" fill="#020207"/>
<path transform="translate(21,1595)" d="m0 0h55l48 1 55 2 65 1v1h-67l-36-1-77-1h-21l-6-1-7-1-1 3-8-3z" fill="#0B0A1E"/>
<path transform="translate(107,984)" d="m0 0h1v113l-1 59-2 4-1-32-1-1 2-56h2z" fill="#060516"/>
<path transform="translate(663,835)" d="m0 0h1l1 8 1 25-1 1 3 2 1 3 4 1-1 6-1 4 2 4 12 6-4 1-1-1-9-2-4-6-3-1-4-5v-29l2-7v-7z" fill="#202254"/>
<path transform="translate(1284,525)" d="m0 0h1l1 32v88l-3 2v-104z" fill="#2B326A"/>
<path transform="translate(1078,482)" d="m0 0h1l1 8 1 39-1 40-1 54-1 23h-1v-99z" fill="#030211"/>
<path transform="translate(1306,1037)" d="m0 0h1l4 30 1 26v35l-4 4-6 2-1 15h-1l-1-14 1-3h2v-2l4-4 2-6 1-13-2-39-1-14z" fill="#02010C"/>
<path transform="translate(1243,703)" d="m0 0h1l1 8v6h2v15l-2 27-2 64-1 38-1 21h-1v-60l3-69z" fill="#141743"/>
<path transform="translate(1255,732)" d="m0 0h32l5 4 1 23 1 9v24l1 4v17l-1 5-2-1-2-60-1-7-1-12-6-2-26-1-3-2z" fill="#232458"/>
<path transform="translate(5,1500)" d="m0 0h1l1 21v27l1 32 1 10v10h-5v-99z" fill="#0B0A1E"/>
<path transform="translate(1069,1461)" d="m0 0 1 3-4 10-6 11-7 7h-3v2l-13 6-11 3-4-1v-3l7-3 6-3 9-3h3l3-7 4-1 1-3 5-2 1-2h2l1-5 3-4z" fill="#282E65"/>
<path transform="translate(650,1499)" d="m0 0h75l31 1h6v2h32v1h-68l-39-1-37-2z" fill="#262A60"/>
<path transform="translate(1253,648)" d="m0 0h1l4 17 2 7h-2l4 12h2v2l2 1-5-1-5-6-2-7-1-3h-2l-2-4-2-1v14l-1 20-2-3v-11l1-7 1-29h4l3 3z" fill="#2B3269"/>
<path transform="translate(1277,385)" d="m0 0h3v14l-1 1-1 63-1 28-1 6-2-2v-26l1-58 2-13 2-12z" fill="#666F9F"/>
<path transform="translate(1109,724)" d="m0 0 3 1 1 13 1 56v25h-1l-2-38-2-16-1-1-2-27-2-6 5-1z" fill="#0B0A1E"/>
<path transform="translate(182,1494)" d="m0 0h95l5 2 75 1v1h-99l-63-2-13-1z" fill="#23255A"/>
<path transform="translate(1282,654)" d="m0 0h1v11l-2 9-5 5-3 2-2 4-5 2-2-1v-2h-2l-3-4-1-8h3l4 5h4l2-12h1l1 6 1-10 6-3z" fill="#242559"/>
<path transform="translate(1241,1149)" d="m0 0h16l2 8v34l-3-1v-2h2l-1-29-2-2-1 35-1 12h-1l-1 42h-1v-96l-7 1z" fill="#7178A5"/>
<path transform="translate(1312,711)" d="m0 0 5 1v5l-1-4-2 1-2 24-1 5-1 16-2 14h-3l-1-14-1-6-1-11-3-6 8 2 2-3 1-16 1-7z" fill="#02010C"/>
<path transform="translate(831,109)" d="m0 0h159l20 2v1l-44-1h-83l-16 1-1-1h-9l-4 1-9-2v2h-2v-2l-9 3v-2l-8 1-4-2z" fill="#2C357D"/>
<path transform="translate(104,1164)" d="m0 0h1v46l-1 53-1 26-2-3v-42l-1-12v-23l1-9 2-6v-16z" fill="#010013"/>
<path transform="translate(1102,758)" d="m0 0h1l3 25 3 39 1 6 1 20 1 44-1 6-3-1v-41l-3-54-3-33z" fill="#2A3169"/>
<path transform="translate(1231,9)" d="m0 0h36l34 1 12 1v1l-23 1-3 2-9 1-7-1h-12l-12-1-1-2-15-2z" fill="#282D5C"/>
<path transform="translate(1112,725)" d="m0 0 2 2 3 20v37l-1 5-1 45h-1l-1-14v-26z" fill="#01000E"/>
<path transform="translate(918,119)" d="m0 0h88l19 4 11 4v1h-5l-3-1-4 1-6-4-12-1-3-1h-7l2 2h-6v-2l-19 1-7-2h-40l-8-1z" fill="#2A3168"/>
<path transform="translate(9,1512)" d="m0 0h2l1 5 1 6v53l-1-3-3-1-1-30v-27z" fill="#2A3068"/>
<path transform="translate(1072,1225)" d="m0 0h1l1 20 1 3 1 19-2 20-1 114h-1z" fill="#090923"/>
<path transform="translate(876,892)" d="m0 0h54l3 2-1 3-2 1 2 2-10 1-13-1v-1l11-1-14-1-15-2h-7l-8-2z" fill="#010013"/>
<path transform="translate(107,662)" d="m0 0h1v68l1 3v7h-2v35l-1 33h-1v-113z" fill="#01000F"/>
<path transform="translate(1252,1072)" d="m0 0 2 4 1 57-4 1-1-1v-54z" fill="#797FAB"/>
<path transform="translate(63,53)" d="m0 0h2v8l-11 3-14 2h-13v-3l19-6z" fill="#2A3067"/>
<path transform="translate(0,1508)" d="m0 0 2 2 1 28v62h-3z" fill="#AEAFB5"/>
<path transform="translate(990,109)" d="m0 0h18l27 3 13 3 3 2v2l5 2 3 3 8 7 5 7-1 2-5-5-11-8-8-5v-2l-5-2-14-4-38-4z" fill="#111236"/>
<path transform="translate(726,1498)" d="m0 0h39l47 1h3l1 3-22 1-32-1-3-1h-13l-21-1z" fill="#2D3784"/>
<path transform="translate(1238,908)" d="m0 0h1v162h-1l-1-55-1-37z" fill="#0B0A1E"/>
<path transform="translate(410,104)" d="m0 0 88 1 41 1 1 2h-15l-5 1-17-1h-17l-7-1h-35l-73-1v-1z" fill="#292F66"/>
<path transform="translate(101,1289)" d="m0 0 2 4-1 50-1 30-2 18v12l-1 4-1 22-1 6h-1v-16l2-44 1-3 1-13 1-43z" fill="#010013"/>
<path transform="translate(1276,624)" d="m0 0h3l-1 3h-2v7l6-2v22l-2 5-6 2v11l-2-1v-12l2-3 1-30z" fill="#161945"/>
<path transform="translate(1247,634)" d="m0 0h1l2 9 1 2 2-1v8l-3-1v-2h-4v29l-1 13 2 26h-2l-2-14v-30l1-16-1-21h4z" fill="#222356"/>
<path transform="translate(1274,1186)" d="m0 0h1v60h-5v-27l2-20z" fill="#7B81AD"/>
<path transform="translate(673,1494)" d="m0 0 13 1 11-1 7 1 2 2 19 1-3 2h-40l-40-1v-1l18-1 4-2 4 2 1-2z" fill="#2E3885"/>
<path transform="translate(104,1377)" d="m0 0h1v27l-2 22-3 29-1 8h-2l1 19 2 3v5h-3v4h-2v-22l2-23 2-7 2-23 2-20z" fill="#262A61"/>
<path transform="translate(815,885)" d="m0 0h44l81 2v1h-95l-27-1z" fill="#576297"/>
<path transform="translate(107,740)" d="m0 0h1l1 8v121h-1l-1-48-1-18v-28z" fill="#0B0A1E"/>
<path transform="translate(360,1497)" d="m0 0h35l6 1h56l42 1v1h-130l-11-1z" fill="#1D1F50"/>
<path transform="translate(1093,908)" d="m0 0 12 1 4 5 4 2v2l-9 2-12-2-5-2-1-3 4-4z" fill="#02010C"/>
<path transform="translate(1273,1181)" d="m0 0h2l1 4v62h-7v-45l1-15zm1 5-3 23-1 10v27h5v-60z" fill="#5B6497"/>
<path transform="translate(1249,718)" d="m0 0h16l-1 3h-2l3 9-11 2h-5l-1-1v-12z" fill="#CCCCC6"/>
<path transform="translate(1255,1077)" d="m0 0h2v56h32v1l-12 1h-20l1 1 35 1v1h-38l-4-2v-2l3-1z" fill="#424E86"/>
<path transform="translate(992,1479)" d="m0 0 13 2-2 3h-1v3 2h-16l-4-2-8 1-3-4v-2l10-2v2l5 1 6-2zm13 1h5v1h-5z" fill="#42508A"/>
<path transform="translate(1254,1193)" d="m0 0h2l2 25 1 2v23l-4 4-1-1z" fill="#E5E2D8"/>
<path transform="translate(1402,1596)" d="m0 0h14v4h-124v-1l76-1h34z" fill="#586295"/>
<path transform="translate(1255,1156)" d="m0 0 3 3v29h-2l3 3v29l-2-4-1-23h-2v-36z" fill="#BEBDB9"/>
<path transform="translate(1239,1067)" d="m0 0h1l1 64 3 3 3 1-1 4-3 5-3 2-1-2-1-14v-60z" fill="#1D1E4F"/>
<path transform="translate(1287,649)" d="m0 0h1v7h2l1-4 1 16v26l-1 2h-2v19h-1l-1-39z" fill="#232458"/>
<path transform="translate(1358,17)" d="m0 0 8 2v-1h11l-3 1 2 1h7l-1-2 5 1 2 1 1-2 1 1h3l5 1 4 2 12 1v1h-15l-55-2v-2l5-2 4 1h4z" fill="#0B0A1E"/>
<path transform="translate(180,49)" d="m0 0h9l5 3 4-2 3-1v4l-3 4-10-1-5 1h-12-3-2v-2h-2l-1-3 1-1 7 1 3 2v-3z" fill="#0B0A1E"/>
<path transform="translate(110,592)" d="m0 0h1v37l-2 103-2-4v-43l2-64z" fill="#0B0A1E"/>
<path transform="translate(938,1502)" d="m0 0h63l5 1h16v1l-6 1h-67v-2h-11z" fill="#2C3474"/>
<path transform="translate(117,160)" d="m0 0h1l1 148-1 27h-3l1-7z" fill="#2A3169"/>
<path transform="translate(1330,12)" d="m0 0h52l34 1-1 3h-48l-3-2-34-1z" fill="#292E63"/>
<path transform="translate(1080,265)" d="m0 0h1l1 35 1 11v14l-1 7-2 79h-1v-46z" fill="#040316"/>
<path transform="translate(1314,523)" d="m0 0 3 1 1 2v41l-2 5h-1l-1-11-1-36z" fill="#010012"/>
<path transform="translate(124,1492)" d="m0 0 103 1v2h-116l1-2h9z" fill="#2D367D"/>
<path transform="translate(7,1559)" d="m0 0h1v13l4 1 1-7h1v26l-1 8h-4l-2-20z" fill="#1D1F50"/>
<path transform="translate(1e3 1482)" d="m0 0h4l6 3-5 4-1 2h-6l3 2-3 1h-18v-2l-7 1 4-2 3-1-1-3 4-1 6 2h8l5 1v-2l-2-1v-3z" fill="#2D3783"/>
<path transform="translate(1243,733)" d="m0 0h1v20l-3 69h-1l-1-36 2-34z" fill="#0B0A1E"/>
<path transform="translate(612,1499)" d="m0 0h38l37 2 39 1v1h-43l-38-1-10-1-23-1z" fill="#141743"/>
<path transform="translate(704,1503)" d="m0 0h59l2 1 43 2 13 1v1h-22l-42-2-10-1-43-1z" fill="#040317"/>
<path transform="translate(1276,1157)" d="m0 0h1v61h2l1 3v21l-3-1v5h-1z" fill="#0C0B23"/>
<path transform="translate(1294,1145)" d="m0 0 1 4h-4l-1 5v5l-2 3-1 6h-1l-2-12-1 3-1 34h-1v-38l3-1v-4l-26-1v-1l35-1z" fill="#2D3264"/>
<path transform="translate(698,104)" d="m0 0h19l38 1 18 1v1h-63l-24-1v-1z" fill="#050415"/>
<path transform="translate(1283,664)" d="m0 0 1 4-1 20h-6l-5-2-1 2h-5l3-3 2-1 2-4 5-5 3-1v-7z" fill="#2B326A"/>
<path transform="translate(220,104)" d="m0 0h69l-1 2h-2l-1 2h-2v-2l-3 1h-13l-2 2h-4l-2-3h-3v3h-4l-3-3h-24l-5-1z" fill="#2E3885"/>
<path transform="translate(897,1472)" d="m0 0h29l33 1 6 1v1h-64v-2z" fill="#222357"/>
<path transform="translate(672,828)" d="m0 0h1l1 5 2 3 1 13v15l-2 1-2-4-1 13h-1v-22z" fill="#C8C8C4"/>
<path transform="translate(678,877)" d="m0 0 13 3v2h9l8 1 1 5h-11l-14-4-5-3z" fill="#44518A"/>
<path transform="translate(801,721)" d="m0 0 74 3v1h-44l-32-1-7-1v-1z" fill="#373D73"/>
<path transform="translate(674,731)" d="m0 0h1v22l-1 45h-1l-1-22h-1v-14h1l1-11h-2v-15z" fill="#515D94"/>
<path transform="translate(1255,732)" d="m0 0h32v2l3 2 1 6v15l-2-4-1-15-6-2-26-1-3-2z" fill="#1C204D"/>
<path transform="translate(1295,1070)" d="m0 0h1l1 42-1 20-2 3-5 1h-14l-10-1v-1h15l12-1 2-10v-51z" fill="#232458"/>
<path transform="translate(703,890)" d="m0 0 27 2 6 2 1 3-1 1h-7l-5-2h-3l-4-1-8-1h-9l1-3z" fill="#010013"/>
<path transform="translate(104,818)" d="m0 0h1l1 77-2-1-1-4-1-22z" fill="#02010C"/>
<path transform="translate(1282,1213)" d="m0 0 2 1-1 4 3 1v20l-2 2v4h-2l-1-3v-22z" fill="#BEBDB9"/>
<path transform="translate(921)" d="m0 0h16v1l17 1v1l7 1v1h-34l-10-1 1-3z" fill="#D0CFC9"/>
<path transform="translate(831,109)" d="m0 0h53l-1 2-16 1-1-1h-9l-4 1-9-2v2h-2v-2l-9 3v-2l-8 1-4-2z" fill="#2E3885"/>
<path transform="translate(1248,717)" d="m0 0 3 1-2 1-1 15-1 40-2 10h-1v-25l3-41z" fill="#2D3577"/>
<path transform="translate(99,1372)" d="m0 0 2 1-2 18v12l-1 4-1 22-1 6h-1v-16l2-44z" fill="#010010"/>
<path transform="translate(1287,1215)" d="m0 0h1v32h-7l-1-1v-26h1l1 25 1-5 2-1 1-19z" fill="#6B73A2"/>
<path transform="translate(289,104)" d="m0 0h64v1l-25 1-19 1h-13l-3-1v3l-3-1 1-1-2-1z" fill="#2C3579"/>
<path transform="translate(950,832)" d="m0 0h1v28l-1 20-2 4-3-3h2l1-37 1-11z" fill="#3C4277"/>
<path transform="translate(1245,658)" d="m0 0h1v20l-1 13 2 26h-2l-2-14v-30l1-14z" fill="#232458"/>
<path transform="translate(1059,1214)" d="m0 0h3v13l-9 1v-12z" fill="#2E376F"/>
<path transform="translate(1099,718)" d="m0 0 2 1 1 4 2 28 2 19-2 1-1-3v-10h-2z" fill="#25285D"/>
<path transform="translate(310,3)" d="m0 0 13 1 2 2h-87v-1l71-1z" fill="#C5C5C0"/>
<path transform="translate(815,885)" d="m0 0h44l4 2-5 1h-13l-27-1z" fill="#4F5B92"/>
<path transform="translate(1243,703)" d="m0 0h1l1 8v6h2v15l-2 21h-1z" fill="#151845"/>
<path transform="translate(1053,141)" d="m0 0 6 2 7 5 3 5h-7v-2l2-1-4-3-4-1-3-3 2 4 4 2v3l-10-1 1-7h-2v-2z" fill="#2B3370"/>
<path transform="translate(36,60)" d="m0 0h8l5 1v2h5v1l-14 2h-13v-3z" fill="#2D346A"/>
<path transform="translate(1248,719)" d="m0 0h8v12l-7 1-1-1z" fill="#CCCCC7"/>
<path transform="translate(107,948)" d="m0 0h1v36l-1 22h-2v-47l1-1z" fill="#040314"/>
<path transform="translate(1059,1163)" d="m0 0h2v11l-4 2h-4l-1 2v-11z" fill="#2E366F"/>
<path transform="translate(941,888)" d="m0 0 2 1 1 4-60-2v-1h57z" fill="#1B1E4E"/>
<path transform="translate(1051,118)" d="m0 0 9 2 5 4 7 10 6 12-1 3-8-14-8-9-5-3-3-3z" fill="#020114"/>
<path transform="translate(673,875)" d="m0 0 5 2 4 3-2 1 8 4 2 3-10-1-8-5z" fill="#272D63"/>
<path transform="translate(1239,839)" d="m0 0h1v43l-1 17h-1l-2-9 1-19 1-1z" fill="#060519"/>
<path transform="translate(672,770)" d="m0 0h1v39l-1 7h-1l-1-27-1-5 1-8h2z" fill="#2E376F"/>
<path transform="translate(5,106)" d="m0 0h1v23l-1 51h-1l-1-31v-38z" fill="#1C1E4E"/>
<path transform="translate(114,101)" d="m0 0 1 4v52h-1l-1-10-2-24v-9h2v-12z" fill="#030212"/>
<path transform="translate(783,723)" d="m0 0h16l32 1v1l-20 2-5 1-8-1-2-1v-2h-13z" fill="#DBD8D0"/>
<path transform="translate(16,1595)" d="m0 0 8 1 5 2 1-2h7l6 3v1h-27z" fill="#1B1D4E"/>
<path transform="translate(1299,506)" d="m0 0 2 4v7l-4 11-2 26-2 1 1-28 1-5h2z" fill="#01000F"/>
<path transform="translate(1277,492)" d="m0 0h3l1 5-1 13-2 5-1 8h-1v-27z" fill="#010012"/>
<path transform="translate(525,107)" d="m0 0h13l30 2v1l-17 1h-26l-3-2z" fill="#2D367D"/>
<path transform="translate(1054,1112)" d="m0 0h6l1 5 1 9-8-1z" fill="#1C1E4D"/>
<path transform="translate(1047,121)" d="m0 0 9 1 8 6 8 10-1 2-5-5-11-8-8-5z" fill="#1F2255"/>
<path transform="translate(1254,1180)" d="m0 0 2 4 1 6 2 1v29l-2-4-1-23h-2z" fill="#CCCCC6"/>
<path transform="translate(1113,881)" d="m0 0h2v18l-1 4-10-1v-2h-2l-1-3h6l5 1z" fill="#151845"/>
<path transform="translate(1287,1169)" d="m0 0 2 3v74h-1l-1-64-1-2z" fill="#171943"/>
<path transform="translate(1e3 119)" d="m0 0 11 1 16 4 8 3v1h-5l-3-1-4 1-6-4-12-1-7-2z" fill="#2B326B"/>
<path transform="translate(1283,1155)" d="m0 0 2 1 1 7v16l-3 2-1-1v-24z" fill="#4D5990"/>
<path transform="translate(1036,128)" d="m0 0 7 3 3 2-2 6h-9l-1-4 2-5z" fill="#191C49"/>
<path transform="translate(1057,1141)" d="m0 0h4v10l-3 2h-5v-7l1-4z" fill="#161944"/>
<path transform="translate(1243,393)" d="m0 0 5 1 2 4-1 25h-1v-19l-4-2-2-2v-6z" fill="#A7AAB8"/>
<path transform="translate(1086,896)" d="m0 0h9l7 2v2h2v2h-11l-8-2z" fill="#0E0D26"/>
<path transform="translate(135,29)" d="m0 0 5 1v3h-2v2l-7 3h-6v-3l4-2v-2z" fill="#0B0A1E"/>
<path transform="translate(250,1494)" d="m0 0h27l5 2v1h-30v-2z" fill="#2B326A"/>
<path transform="translate(945,892)" d="m0 0h62v1l-52 1-4 1h-6z" fill="#202356"/>
<path transform="translate(101,1494)" d="m0 0h46l2 2-29 1-13 1-3-1v-2z" fill="#232559"/>
<path transform="translate(1104,144)" d="m0 0 4 4 3 8v8h-4l-2-8z" fill="#25295E"/>
<path transform="translate(1057,1314)" d="m0 0 3 1-1 10h-8l1-9z" fill="#2F376F"/>
<path transform="translate(1402,1596)" d="m0 0h14l-1 3h-47v-1h34z" fill="#3E4A84"/>
<path transform="translate(932,1502)" d="m0 0 17 1v2h-20l-34-1v-1z" fill="#26295F"/>
<path transform="translate(39,1596)" d="m0 0 7 1h18l3 1v2h-24z" fill="#161946"/>
<path transform="translate(666,117)" d="m0 0h9l3 3-1 3-7-2v3h-7v-4z" fill="#2B326A"/>
<path transform="translate(919,32)" d="m0 0h13l-1 3-6 2h-8v2h-4l2-4z" fill="#0F0F2B"/>
<path transform="translate(982,1486)" d="m0 0 7 2v2l-3 3 5-1 6 1v1h-17v-2l-7 1 4-2 3-1-1-3z" fill="#2D367C"/>
<path transform="translate(1060,966)" d="m0 0 1 3-2 7h-7l-2-7 8-1z" fill="#2E356D"/>
<path transform="translate(1054,915)" d="m0 0h7l1 5-2-1-1 3 4 1v2l-10-1z" fill="#1B1E4B"/>
<path transform="translate(1219,837)" d="m0 0h6l-1 7-2 5h-2l-3-6v-5z" fill="#02010C"/>
<path transform="translate(1058,1187)" d="m0 0h3v11l-6 1v-10z" fill="#232458"/>
<path transform="translate(738,901)" d="m0 0h30l12 2v1h-21v-2h-21z" fill="#272B61"/>
<path transform="translate(1079,162)" d="m0 0 2 2v31l-2-2-1-30z" fill="#636B9B"/>
<path transform="translate(685,1499)" d="m0 0h31l3 3h-10l-4-1h-12l-8-1z" fill="#2A3169"/>
<path transform="translate(107,1499)" d="m0 0h35v1l-16 1-10 1h-6z" fill="#010013"/>
<path transform="translate(943,1451)" d="m0 0h23l-3 2-11 1-10 1-2 1-4-2 5-1h2z" fill="#2F376F"/>
<path transform="translate(1044,907)" d="m0 0 24 1 6 1-1 2-6-1v2l-21-2z" fill="#2A3169"/>
<path transform="translate(253,1446)" d="m0 0h8l-1 4-8 1-9-1-1-3z" fill="#2D3784"/>
<path transform="translate(939,727)" d="m0 0h5l9 6 1 6-1 5h-1l-2-7-7-7z" fill="#2A3067"/>
<path transform="translate(93,1465)" d="m0 0h1l1 32h7l5 1v1l-13 1-1-2z" fill="#070619"/>
<path transform="translate(1036,1492)" d="m0 0m-1 1m-1 1m-2 1 2 1 2 3-10 4-4-1v-3l7-3z" fill="#2A306B"/>
<path transform="translate(681,896)" d="m0 0 7 1 17 2-3 2-10 1-1-1-9-2z" fill="#282E65"/>
<path transform="translate(1277,385)" d="m0 0h3v14l-1 1-2 25h-1v-23l3-16z" fill="#626B9C"/>
<path transform="translate(946,1483)" d="m0 0h13v3l-1 1h-10-2l-4-1 1-2z" fill="#3B4789"/>
<path transform="translate(1255,1138)" d="m0 0h39v7l-2-1v-5l-28 1-1 2h-2v-3h-6z" fill="#B7B7B9"/>
<path transform="translate(1257,1134)" d="m0 0 18 1 13 1v1h-30l-2-2z" fill="#13153F"/>
<path transform="translate(671,762)" d="m0 0h3v36h-1l-1-22h-1z" fill="#545F95"/>
<path transform="translate(218,1447)" d="m0 0h5l2 4-2 2-11-1v-2l-2-1z" fill="#2E3885"/>
<path transform="translate(110,456)" d="m0 0h1v31l-3-3 1-20z" fill="#01000F"/>
<path transform="translate(5,61)" d="m0 0h1v45l-3-4 2-7h-2l1-3z" fill="#232458"/>
<path transform="translate(615,115)" d="m0 0 1 3h6l2 2 4 2-1 1-15-1z" fill="#2B326A"/>
<path transform="translate(997,1502)" d="m0 0 16 1h9v1l-6 1h-26l2-2z" fill="#262C66"/>
<path transform="translate(105,925)" d="m0 0h1l2 23-1 10-2-2-1-29z" fill="#01000D"/>
<path transform="translate(726,1498)" d="m0 0h25l1 2-6 1-21-1z" fill="#2E3885"/>
<path transform="translate(995,904)" d="m0 0h29l10 2-2 1v3h-2l-1-3-8-1-26-1z" fill="#252A5F"/>
<path transform="translate(921)" d="m0 0h16v1l-5 1v2h-15l1-3z" fill="#D5D4CD"/>
<path transform="translate(836,1488)" d="m0 0 6 1 8-1 8 1v2h-21z" fill="#232458"/>
<path transform="translate(1069,1461)" d="m0 0 1 3-4 10-4 6-8 1 3-3 3-1 1-2h2l1-5 3-4z" fill="#272E6C"/>
<path transform="translate(1052,1290)" d="m0 0 4 1-1 10-4 1v-10z" fill="#24285D"/>
<path transform="translate(1271,1154)" d="m0 0 4 1-3 3-1 5-1 18h-1l-1-23z" fill="#272D63"/>
<path transform="translate(1274,1156)" d="m0 0h1l1 19-2 2-2-6v-12z" fill="#636B9B"/>
<path transform="translate(961,1482)" d="m0 0h8l4 4-3 2-3-2-1 2-6-1v-2h3v-2z" fill="#2F3982"/>
<path transform="translate(1060,1479)" d="m0 0 2 1-2 5-7 7-3-1 1-3h2v-2h2l2-4z" fill="#1F2153"/>
<path transform="translate(1048,1453)" d="m0 0h10l-1 3h-3l-1 3h-6z" fill="#1C1E4F"/>
<path transform="translate(1239,1135)" d="m0 0 1 3h4l1-3h2l-1 4-3 5-3 2-1-2z" fill="#191C4B"/>
<path transform="translate(1249,718)" d="m0 0h10v12l2 1h-5l-1-11-6-1z" fill="#ADAEB6"/>
<path transform="translate(105,716)" d="m0 0h2l1 14 1 3v7h-3z" fill="#040311"/>
<path transform="translate(510,106)" d="m0 0h29l1 2h-15l-5 1-10-1z" fill="#272B61"/>
<path transform="translate(991,1488)" d="m0 0h6l1 3 3 2-4 1-11-1 1-3z" fill="#303A85"/>
<path transform="translate(1269,1149)" d="m0 0h15l1 3-1 2-2-1v-3h-6v5h-6l1-5z" fill="#0C0B22"/>
<path transform="translate(831,109)" d="m0 0h19v1h-6v2h-2v-2l-9 3v-2l-8 1-4-2z" fill="#2D3784"/>
<path transform="translate(177,1456)" d="m0 0 3 1-15 6-4-1v-2l9-2z" fill="#2E3885"/>
<path transform="translate(1115,879)" d="m0 0h1l1 22-1 3h-11l-1-2 10 1z" fill="#040316"/>
<path transform="translate(563,116)" d="m0 0h3v2l8 1v2h-7l-2 1h-5l-1-2z" fill="#2B326B"/>
<path transform="translate(880)" d="m0 0h11v4h-12z" fill="#D3D3CC"/>
<path transform="translate(16,1595)" d="m0 0 8 1 3 3v1h-11z" fill="#252A5E"/>
<path transform="translate(104,1486)" d="m0 0 4 1 3 5v2l-8-1v-6z" fill="#C7C7C1"/>
<path transform="translate(587,117)" d="m0 0 10 2 2 1v2l-7 1-6-2z" fill="#2B326A"/>
<path transform="translate(5,106)" d="m0 0h1v23h-2l-1-18z" fill="#1B1D4D"/>
<path transform="translate(201,1449)" d="m0 0h7l-2 5h-8l-4-2z" fill="#2D3782"/>
<path transform="translate(1053,1064)" d="m0 0h3l1 7-2 6-2 2z" fill="#272C62"/>
<path transform="translate(1278,1139)" d="m0 0h14v3h-14z" fill="#CCCBC6"/>
<path transform="translate(1057,1112)" d="m0 0 4 1v8l1 5-4-1-1-11z" fill="#262A60"/>
<path transform="translate(1252,986)" d="m0 0 2 1v5h-2l2 3v5l-3 1-1-5v-6z" fill="#61699A"/>
<path transform="translate(540,108)" d="m0 0h14l14 1v1l-17 1-12-1z" fill="#2E3885"/>
<path transform="translate(1059,1214)" d="m0 0h3v13h-3v-11l-5 2 1-3z" fill="#23255A"/>
<path transform="translate(1059,1013)" d="m0 0 2 1v6l-2 2-4-1 1-7z" fill="#282C63"/>
<path transform="translate(1059,574)" d="m0 0 3 1-1 11-1 13h-1l-1-15v-3z" fill="#272C62"/>
<path transform="translate(771,108)" d="m0 0h8v2l7-1 4 2-9 1-19-1v-1h9z" fill="#2D3782"/>
<path transform="translate(1250,968)" d="m0 0 3 2-1 8 2 3-3 5h-1l-1-9z" fill="#636B9B"/>
<path transform="translate(1097,889)" d="m0 0 4 1 1 5 2 1h-9l-1-2 1-2h2z" fill="#7B81AD"/>
<path transform="translate(1067,245)" d="m0 0h2v11h-4v-8z" fill="#2A3067"/>
<path transform="translate(1284,1165)" d="m0 0 2 4v10l-3 2v-14z" fill="#576295"/>
<path transform="translate(1053,143)" d="m0 0 3 1v2l5 1 4 4-6 1v-2l-4-2z" fill="#384488"/>
<path transform="translate(1022,111)" d="m0 0 13 1 4 2v2l-9-1-3-2-5-1z" fill="#101130"/>
<path transform="translate(1059,1163)" d="m0 0h2v11l-4 1 1-10z" fill="#14163C"/>
<path transform="translate(1279,732)" d="m0 0h8l-5 4-26-1v-1l23-1z" fill="#262A60"/>
<path transform="translate(1276,624)" d="m0 0h3l-1 3h-2v29h-1v-30z" fill="#48538A"/>
<path transform="translate(1108,152)" d="m0 0h2l1 4v8h-4l-1-10h1l1 5z" fill="#2C336A"/>
<path transform="translate(640,115)" d="m0 0 2 1 2 6h-5l-1 2-4-2 1-3 4-1z" fill="#2B326A"/>
<path transform="translate(1060,1238)" d="m0 0 3 1v15h-11v-3l9 2z" fill="#2A3068"/>
<path transform="translate(1059,547)" d="m0 0h2v14l-3 3v-16z" fill="#282D64"/>
<path transform="translate(797,118)" d="m0 0 6 1 1 3-6 2h-4l1-4z" fill="#2B326A"/>
<path transform="translate(978,1502)" d="m0 0h14v2l-2 1h-9l-5-1z" fill="#2D3782"/>
<path transform="translate(563,1495)" d="m0 0h12v3h-11z" fill="#2D3680"/>
<path transform="translate(808,1471)" d="m0 0m-7 0 7 1v2l-2 1h-10v-3z" fill="#1E2052"/>
<path transform="translate(669,889)" d="m0 0 7 2 9 4-4 1-1-1-9-2z" fill="#1B1D4D"/>
<path transform="translate(1058,681)" d="m0 0h2v12h-3v-11z" fill="#1E2253"/>
<path transform="translate(1016,120)" d="m0 0 12 1 5 4-8-1-9-3z" fill="#596396"/>
<path transform="translate(486,114)" d="m0 0 4 2 1 4-5 2-2-2 1-5z" fill="#2C3474"/>
<path transform="translate(99,1442)" d="m0 0h2l-1 13-1 8h-1v-18z" fill="#37417B"/>
<path transform="translate(1052,1369)" d="m0 0 3 1v2l5-1 1 4h-10z" fill="#2A3068"/>
<path transform="translate(673,875)" d="m0 0 5 2v2h-2v5l-4-2z" fill="#292B5F"/>
<path transform="translate(5,18)" d="m0 0h2l-2 13h-3v-8l2-4z" fill="#141743"/>
<path transform="translate(185,1452)" d="m0 0h8v3l-2-1-1 2-8 1-1-2z" fill="#2E3885"/>
<path transform="translate(1056,1063)" d="m0 0h5l1 3v9l-3 1v-12z" fill="#272C62"/>
<path transform="translate(1057,143)" d="m0 0 5 2 5 5 2 3h-7v-2l2-1-7-6z" fill="#292F69"/>
<path transform="translate(1066,346)" d="m0 0h3l-1 9h-4l1-8z" fill="#2A3169"/>
<path transform="translate(1047,121)" d="m0 0 7 1 10 10-5-2-10-7z" fill="#2A326E"/>
<path transform="translate(130,58)" d="m0 0h2v4l-7 1-3-2 1-2h6z" fill="#0B0A1E"/>
<path transform="translate(1059,523)" d="m0 0h3l-1 12h-2l-1-11z" fill="#222558"/>
<path transform="translate(1069,1326)" d="m0 0 2 3v10l-3 1v-3h2v-2h-2v-2h2l-3-4v-2z" fill="#636B9B"/>
<path transform="translate(1056,1037)" d="m0 0h4v9l-1 2h2v2h-3l-1-3v-8z" fill="#25295F"/>
<path transform="translate(1252,659)" d="m0 0h2v2h3l1 8h-2v-3h-2l-2-4z" fill="#242759"/>
<path transform="translate(1067,221)" d="m0 0h3l-1 8-4 1-1-2z" fill="#272C62"/>
<path transform="translate(46,57)" d="m0 0h4v5l-10-1v-2z" fill="#1B1D4D"/>
<path transform="translate(1051,1388)" d="m0 0h5l-2 8-4-1 3-2h-2z" fill="#2A3169"/>
<path transform="translate(1291,1149)" d="m0 0h9l-1 3-4-1v2l-6 1z" fill="#0C0C25"/>
<path transform="translate(969,909)" d="m0 0h2l1 5-7 2v-3h2z" fill="#2A3068"/>
<path transform="translate(681,896)" d="m0 0 7 1 8 1v1l-12 1-3-3z" fill="#272B61"/>
<path transform="translate(939,727)" d="m0 0h5l6 4v2l-3 1-6-5z" fill="#353D75"/>
<path transform="translate(11,1591)" d="m0 0 2 1v8h-4v-7z" fill="#171947"/>
<path transform="translate(235,1446)" d="m0 0 4 1v3l-7 1-1-3z" fill="#2D3784"/>
<path transform="translate(1286,1149)" d="m0 0h5l-1 9h-2v-4h-2z" fill="#262A60"/>
<path transform="translate(1057,1143)" d="m0 0h1v6 3 1h-5v-7l2 2z" fill="#2B3169"/>
<path transform="translate(1079,162)" d="m0 0 2 2v11h-2l-1-12z" fill="#566195"/>
<path transform="translate(1062,1150)" d="m0 0h2l-1 4h-4l-1 3h-4v-3z" fill="#606999"/>
<path transform="translate(1056,1089)" d="m0 0h4l-1 8-2 3v-8l-3-2z" fill="#596396"/>
<path transform="translate(906,39)" d="m0 0h6l-5 5h-3v-4z" fill="#0B0A1E"/>
<path transform="translate(1058,1189)" d="m0 0h2v9l-5 1 1-8z" fill="#141743"/>
<path transform="translate(1294,1138)" d="m0 0 2 2v3l3 1-1 4h-3l-1-3z" fill="#25275C"/>
<path transform="translate(1040,116)" d="m0 0 9 2 5 4-9-2z" fill="#161946"/>
<path transform="translate(718,117)" d="m0 0h2v4h-2v2l4-1v2h-8l2-4h2z" fill="#2B326B"/>
</svg>
