<?xml version='1.0' encoding='iso-8859-1'?>
<!-- Uploaded to: SVG Repo, www.svgrepo.com, Generator: SVG Repo Mixer Tools -->
<svg fill="#000000" height="800px" width="800px" version="1.1" xmlns="http://www.w3.org/2000/svg" viewBox="0 0 490.081 490.081" xmlns:xlink="http://www.w3.org/1999/xlink" enable-background="new 0 0 490.081 490.081">
  <path d="m132.295,379.235l28.414-28.415c5.858-5.858 15.356-5.858 21.213,0 5.858,5.858 5.858,15.355 0,21.213l-28.414,28.415c-2.929,2.929-6.768,4.394-10.607,4.394s-7.678-1.464-10.606-4.393c-5.857-5.859-5.857-15.356 0-21.214zm-14.205-71.036l-28.415,28.414c-5.858,5.858-5.858,15.355 0,21.213 2.93,2.929 6.768,4.394 10.607,4.394 3.838,0 7.678-1.465 10.606-4.394l28.415-28.415c5.858-5.857 5.858-15.355 0-21.213-5.858-5.856-15.355-5.857-21.213,0.001zm289.463-225.627c9.425,9.424 14.615,21.99 14.615,35.385 0,13.394-5.19,25.96-14.615,35.385-0.037,0.037-0.075,0.074-0.112,0.111-9.411,9.354-21.932,14.504-35.273,14.504-0.001,0 0,0-0.001,0-13.394,0-25.96-5.191-35.385-14.616-9.424-9.423-14.614-21.99-14.614-35.384 0-13.394 5.19-25.96 14.615-35.384 9.424-9.424 21.99-14.615 35.384-14.615 13.351,0 25.88,5.157 35.293,14.523 0.031,0.029 0.062,0.06 0.093,0.091zm-15.385,35.385c0-5.357-2.052-10.37-5.779-14.122-0.017-0.017-0.035-0.034-0.052-0.051-3.757-3.758-8.79-5.827-14.17-5.827-5.38,0-10.414,2.07-14.172,5.829-3.758,3.758-5.828,8.791-5.828,14.171 0,5.381 2.069,10.413 5.827,14.17 0,0 0.001,0 0.001,0.001 3.759,3.759 8.792,5.829 14.172,5.829 5.38,0 10.412-2.069 14.169-5.827 0.024-0.025 0.049-0.049 0.074-0.073 3.714-3.75 5.758-8.754 5.758-14.1zm97.872,12.909c-0.001,35.062-13.569,67.937-38.202,92.569l-166.573,166.574c-5.857,5.858-15.355,5.858-21.213,0l-7.431-7.43-103.108,103.108c-2.813,2.813-6.628,4.394-10.606,4.394s-7.793-1.58-10.606-4.394l-127.867-127.865c-2.813-2.813-4.394-6.628-4.394-10.606 0-3.979 1.581-7.794 4.394-10.607l103.11-103.107-7.429-7.429c-5.858-5.858-5.858-15.355 0-21.213l166.574-166.576c51.046-51.047 134.103-51.045 185.15,0.001 24.636,24.637 38.203,57.517 38.201,92.581zm-254.632,230.499l-106.65-106.65-92.504,92.501 106.652,106.652 92.502-92.503zm224.632-230.5c0.001-27.051-10.445-52.396-29.415-71.366-39.35-39.35-103.374-39.35-142.724-0.001l-155.966,155.968 142.723,142.723 155.967-155.966c18.968-18.967 29.414-44.309 29.415-71.358z"/>
</svg>